<?xml version="1.0" encoding="utf-8"?>
<!-- Generator: Adobe Illustrator 24.2.0, SVG Export Plug-In . SVG Version: 6.00 Build 0)  -->
<svg version="1.1" id="Warstwa_1" xmlns="http://www.w3.org/2000/svg" xmlns:xlink="http://www.w3.org/1999/xlink" x="0px" y="0px"
	 viewBox="0 0 104.2 139.5" style="enable-background:new 0 0 104.2 139.5;" xml:space="preserve">
<style type="text/css">
	.st0{fill-rule:evenodd;clip-rule:evenodd;fill:#FFFFFF;}
	.st1{fill-rule:evenodd;clip-rule:evenodd;fill:#03468F;}
	.st2{fill-rule:evenodd;clip-rule:evenodd;fill:#D2011F;}
	.st3{fill:#707173;}
</style>
<g>
	<polygon class="st0" points="105.2,139.5 1,139.5 1,0 105.2,0 105.2,139.5 	"/>
	<polygon class="st1" points="98.2,56.6 7.7,56.6 7.7,6.8 98.2,6.8 98.2,56.6 	"/>
	<polygon class="st2" points="98.2,106.4 7.7,106.4 7.7,56.6 98.2,56.6 98.2,106.4 	"/>
	<path class="st0" d="M70.8,20.2c-1.6,0-2.8,0.9-4.2,2.5l-2.9,3.5c-1.5,1.7-2.8,2.7-4.4,2.7c-1.6,0-3-1.3-3-3c0-1.2,0.6-1.6,0.6-3
		c0-1.5-2.2-3.6-4-5.2c-1.8,1.6-4,3.7-4,5.2c0,1.4,0.6,1.8,0.6,3c0,1.7-1.3,3-3,3c-1.6,0-2.9-0.9-4.4-2.7l-2.9-3.5
		c-1.3-1.6-2.6-2.5-4.2-2.5h-2.7l4.8,7.7c2.3,3.6,3.4,4.2,8,4.2l15.6,0c4.6,0,5.7-0.6,8-4.2l4.8-7.7H70.8L70.8,20.2z"/>
	<path class="st0" d="M48.7,49.7c-3.6,0.1-7.1-0.2-9.1-1.2c2.2,5.3,11.4,2.8,11.4,10c0,3.8-3.5,5.9-7.6,5.9
		c6.4,4.4,14.9,1.1,14.9-7.4C58.3,51.9,53.3,49.6,48.7,49.7L48.7,49.7z"/>
	<path class="st0" d="M67,38.2h8.4c1.8,0,3-1,3.4-3c0.1-0.7,1.3-6.6,2.4-11.6c-4,5.6-9.5,11-16.4,11h-7.6c-3.6,3.5-8.7,3.8-8.9,0
		h-11c-13.3,0-15.3,10.2-9.9,15.1c0-4.2,4.9-8,13.5-6.8c9.9,1.3,18.1,5.5,20.2,1.2c1.7-3.5,3.9-3.7,6.4-1.9
		c2.5,1.8,12.2,10-4.5,24.7C53,75.5,45.5,80.1,45.8,88c0.1,2.7,2.2,7.3,7.5,7.5c-4.3-3.9,5.8-12,14.6-20.5
		c6.7-6.5,12.7-13.2,12.7-21.2C80.6,46.1,74.4,40.5,67,38.2L67,38.2z"/>
	<path class="st3" d="M6.3,129.8c0.9,0.5,2.8,1.1,4.8,1.1c4.6,0,6.8-2.4,6.8-5.2c0-2.4-1.4-3.9-4.4-5c-2.2-0.8-3.1-1.3-3.1-2.4
		c0-0.9,0.8-1.6,2.4-1.6s2.8,0.5,3.5,0.8l0.8-3c-1-0.5-2.4-0.9-4.3-0.9c-4,0-6.4,2.2-6.4,5.1c0,2.4,1.8,4,4.6,5
		c2,0.7,2.8,1.3,2.8,2.4c0,1.1-0.9,1.8-2.7,1.8c-1.6,0-3.2-0.5-4.2-1L6.3,129.8L6.3,129.8z M19.4,130.6h10.6v-3h-5.9v0
		c0.7-0.7,1.3-1.4,2-2.2l3.7-4.6v-2.3h-10v3h5.4v0c-0.7,0.7-1.2,1.3-1.9,2.2l-3.8,4.8V130.6L19.4,130.6z M40.5,127.5
		c-0.6,0.2-1.3,0.4-2.2,0.4c-1.8,0-3.3-1.2-3.3-3.4c0-2,1.3-3.4,3.3-3.4c1,0,1.7,0.2,2.1,0.4l0.6-2.8c-0.8-0.3-1.9-0.5-2.9-0.5
		c-4.5,0-7,2.9-7,6.5c0,3.8,2.5,6.3,6.5,6.3c1.4,0,2.7-0.3,3.4-0.6L40.5,127.5L40.5,127.5z M42.1,130.6h10.6v-3h-5.9v0
		c0.7-0.7,1.3-1.4,2-2.2l3.7-4.6v-2.3h-10v3h5.4v0c-0.7,0.7-1.2,1.3-1.9,2.2l-3.8,4.8V130.6L42.1,130.6z M65.4,125.7
		c0-0.3,0.1-0.8,0.1-1.5c0-3-1.5-6.1-5.4-6.1c-4.2,0-6.2,3.4-6.2,6.5c0,3.8,2.4,6.2,6.5,6.2c1.6,0,3.2-0.3,4.4-0.8l-0.5-2.6
		c-1,0.3-2.1,0.5-3.4,0.5c-1.8,0-3.3-0.7-3.4-2.3H65.4L65.4,125.7z M57.5,123.1c0.1-1,0.7-2.5,2.3-2.5c1.7,0,2.1,1.5,2.1,2.5H57.5
		L57.5,123.1z M76.5,127.5c-0.6,0.2-1.3,0.4-2.2,0.4c-1.8,0-3.3-1.2-3.3-3.4c0-2,1.3-3.4,3.3-3.4c1,0,1.7,0.2,2.1,0.4l0.6-2.8
		c-0.8-0.3-1.9-0.5-2.9-0.5c-4.5,0-7,2.9-7,6.5c0,3.8,2.5,6.3,6.5,6.3c1.4,0,2.7-0.3,3.4-0.6L76.5,127.5L76.5,127.5z M82.8,130.6
		v-12.2H79v12.2H82.8L82.8,130.6z M80.9,113.1c-1.2,0-2,0.8-2,1.9c0,1,0.8,1.9,2,1.9c1.2,0,2-0.8,2-1.9
		C82.9,113.9,82.1,113.1,80.9,113.1L80.9,113.1z M85.8,130.6h3.8v-7c0-0.3,0-0.7,0.1-0.9c0.2-0.7,0.9-1.4,1.9-1.4
		c1.4,0,1.9,1.1,1.9,2.6v6.8h3.8v-7.2c0-3.6-1.9-5.2-4.4-5.2c-2,0-3.3,1.2-3.8,1.9h-0.1l-0.2-1.7h-3.3c0,1.1,0.1,2.4,0.1,3.9V130.6
		L85.8,130.6z"/>
</g>
</svg>
