<svg id="Warstwa_1" data-name="Warstwa 1" xmlns="http://www.w3.org/2000/svg" xmlns:xlink="http://www.w3.org/1999/xlink" viewBox="0 0 243.08 90.35"><defs><style>.cls-1{fill:url(#Gradient_bez_nazwy_9);}.cls-2{fill:url(#Gradient_bez_nazwy_9-2);}.cls-3{fill:url(#Gradient_bez_nazwy_9-3);}.cls-4{fill:url(#Gradient_bez_nazwy_9-4);}.cls-5{fill:url(#Gradient_bez_nazwy_9-5);}.cls-6{fill:url(#Gradient_bez_nazwy_9-6);}.cls-7{fill:url(#Gradient_bez_nazwy_9-7);}</style><linearGradient id="Gradient_bez_nazwy_9" x1="410.19" y1="323.02" x2="410.19" y2="251.16" gradientUnits="userSpaceOnUse"><stop offset="0" stop-color="#000"/><stop offset="1" stop-color="#000"/></linearGradient><linearGradient id="Gradient_bez_nazwy_9-2" x1="410.19" y1="323.02" x2="410.19" y2="251.16" xlink:href="#Gradient_bez_nazwy_9"/><linearGradient id="Gradient_bez_nazwy_9-3" x1="300.18" y1="323.38" x2="300.18" y2="251.52" xlink:href="#Gradient_bez_nazwy_9"/><linearGradient id="Gradient_bez_nazwy_9-4" x1="345.42" y1="323.02" x2="345.42" y2="251.16" xlink:href="#Gradient_bez_nazwy_9"/><linearGradient id="Gradient_bez_nazwy_9-5" x1="396.66" y1="323.02" x2="396.66" y2="251.16" xlink:href="#Gradient_bez_nazwy_9"/><linearGradient id="Gradient_bez_nazwy_9-6" x1="448.03" y1="323.02" x2="448.03" y2="251.16" xlink:href="#Gradient_bez_nazwy_9"/><linearGradient id="Gradient_bez_nazwy_9-7" x1="506.28" y1="323.02" x2="506.28" y2="251.16" xlink:href="#Gradient_bez_nazwy_9"/></defs><path class="cls-1" d="M405.49,274.52c1.56-1.26,3-2.32,4.84-3.55,1.64,1.11,3.41,2.42,4.83,3.55a49.18,49.18,0,0,0-4.83,4.55,55.65,55.65,0,0,0-4.84-4.55m125.48-34c-74,17.32-98.74,32.68-104.11,38.51-.95-1-.51-1.38-2.85-3.34,26.46-19.31,90.09-36.94,90.91-37.16l-.71-2.08c-55.14,12.91-77.59,23.55-95.73,35.23-1.28-1-2.71-2-4.31-3.07,29.59-18.31,83.82-32.78,84.57-33l-.72-2.88C452,243.55,425.13,256.33,410.07,266c-15.25-9.49-42.07-22-87.33-33.16l-.7,2.27c.74.72,47.66,11.61,83.43,33.66-1.75,1.21-2.28,2-3.66,3-12.75-9.64-40.53-22.36-95.83-35.3l-.71,2.76c.84.21,56.64,13.44,92.07,36.48a26.94,26.94,0,0,0-3.46,3.34c-5.43-5.88-30.56-21.22-104.47-38.51l-.71,2.91c1,.27,83.9,21.67,103.72,46.67h3c.07-4.19,2.59-8.36,6.79-12.46,4.12,4.07,6.06,8.28,6,12.46h3.91c.08-4.29,2.23-8.54,6.61-12.71,4.27,4.15,6.79,8.44,6.69,12.71h3c17.92-22.59,102.33-46.47,103.34-46.73Z" transform="translate(-288.6 -232.77)"/><path class="cls-2" d="M410.19,245.78a7,7,0,1,0,7,6.95,6.95,6.95,0,0,0-7-6.95" transform="translate(-288.6 -232.77)"/><path class="cls-3" d="M300,322.34c-3.52,0-7.33,0-11.36.12v-1.74h.59c5.46,0,5.69-.5,5.69-3.28V298.79c0-2.53-.3-3.2-5.39-3.2h-.89V294c3,.09,6.13.13,9.34.13,4.42,0,9.05,0,13.83-.13v1.62h-1.12c-5.08,0-5.16.63-5.16,3.9v17.78c0,2.91.15,3.45,5.09,3.45h1.19v1.74c-4.19-.08-8.14-.12-11.81-.12" transform="translate(-288.6 -232.77)"/><path class="cls-4" d="M368.26,296.51c-.45.95-1,5.85-1,14.66,0,4.19,0,8.09.3,11.79l-5.3-.42c-2.25-.16-2.91-1-4.11-1.74-1.72-1.12-12.26-7.68-30.34-20.43l.21,14.32c.08,3.49.3,5.36.76,5.65s1.78.38,4.19.38h1.12v1.74c-3-.08-5.84-.13-8.6-.13-2.54,0-5.38.05-8.52.13v-1.74h1.12c2.54,0,3.95-.13,4.41-.38s1-2.32,1-6.1l.23-13.5v-.95c0-3.33-.53-4.24-4.79-4.24-.6,0-1.19,0-1.87,0V294c2.69.09,5.24.13,7.85.13s5.09,0,7.55-.13c10.1,7.48,20.33,14.25,30.35,20.56V301.07c0-2.95-.08-4.61-.82-5.06s-2.47-.42-5.54-.42V294c3.36.13,6.28.13,8.67.13,3.36,0,6.28,0,8.67-.13v1.62c-3.51,0-5.31.17-5.6.92" transform="translate(-288.6 -232.77)"/><path class="cls-5" d="M414.82,300.54h-3a23.7,23.7,0,0,0-.68-3.54,56.4,56.4,0,0,0-10.47-.7c-1.57,0-3.43.08-5.46.16a18.82,18.82,0,0,0-.21,2.62v7.6c6.43,0,10.38,0,12-.41,1-.25,1.12-1.21,1.34-2.95h2.92c-.07,1.41-.15,2.82-.15,4.19,0,1.7.08,3.37.15,5h-3.07c-.07-2-.22-3-1.42-3.33a68.7,68.7,0,0,0-10.38-.5H395v8.43c0,3.12.07,3.58,5.23,3.58H402v1.74c-3.89-.12-7.92-.12-12.18-.12s-8.22,0-11.81.12v-1.74c3,0,4.71-.09,5.22-.34,1-.5,1.13-3.61,1.13-9.34V300.49c0-2.45-.07-3.86-.75-4.27s-2.47-.5-5.37-.63V294c4.84.09,9.64.17,14.27.17,5.9,0,13.15-.12,21.67-.21l1,.63a33.82,33.82,0,0,0-.45,6" transform="translate(-288.6 -232.77)"/><path class="cls-6" d="M448.38,295.3c-10.55,0-16.6,4.2-16.6,12.21,0,8.39,6.57,13.46,16.29,13.46,10.24,0,16.22-4.45,16.22-12.79S458,295.3,448.38,295.3m-1.73,27.82c-16.9,0-26.24-5.27-26.24-14.94,0-9.18,10.62-14.91,28.33-14.91,17.56,0,26.91,4.86,26.91,13.91,0,9.92-10.91,15.94-29,15.94" transform="translate(-288.6 -232.77)"/><path class="cls-7" d="M523.85,322.34c-1.65,0-3.66,0-6,.16l-13.31-11.33a35.46,35.46,0,0,0-4.11-3.08l.52-.79h.23c7.25,0,11.8-2.41,11.8-6,0-3-3.74-5.06-9.78-5.06-1.57,0-3.07,0-4.64.16a20.64,20.64,0,0,0-.37,3.86v16.9c0,3,.07,3.58,4.93,3.58h1.19v1.74c-3.95-.08-7.69-.12-11.2-.12-3.22,0-7,0-11.52.12v-1.74c2.85,0,4.56-.09,5-.38.82-.46,1.05-3.57,1.05-9.3V299.7c0-1.95-.07-3.11-.75-3.48s-2.46-.59-5.31-.63V294c3.15.13,6.51.17,10.1.17,5.9,0,11.21-.17,15.69-.17,11.21,0,16.22,1.46,16.22,5.94,0,3.2-3.81,5.86-11.21,7.56l11.51,9.72c2.62,2.2,3.89,3.57,6.65,3.57H531v1.7c-3.29-.08-5.68-.12-7.1-.12" transform="translate(-288.6 -232.77)"/></svg>